<svg version="1.1" id="Layer_1" xmlns="http://www.w3.org/2000/svg" xmlns:xlink="http://www.w3.org/1999/xlink" x="0px" y="0px"
	 width="100%" viewBox="0 0 500 500" enable-background="new 0 0 500 500" xml:space="preserve">
<path fill="#EE8C65" opacity="1.000000" stroke="none" 
	d="
M501.000000,223.000000 
	C501.000000,241.687561 501.000000,260.375122 500.664856,279.188538 
	C499.895264,280.321564 499.220428,281.293518 499.067017,282.341797 
	C498.309875,287.515503 497.999817,292.771729 496.968903,297.885315 
	C492.788452,318.622070 486.993591,338.944550 477.397217,357.826965 
	C471.180511,370.059204 463.493195,381.554901 456.281952,393.268066 
	C447.388550,407.713501 435.996490,420.039856 423.876953,431.851654 
	C408.913361,446.435394 392.365814,458.849884 374.161957,468.887909 
	C362.587128,475.270477 350.576447,481.142426 338.198456,485.722443 
	C320.053589,492.436310 301.352325,497.550598 281.887726,499.112854 
	C281.212341,499.167053 280.627197,500.345551 280.000000,501.000000 
	C260.979095,501.000000 241.958206,501.000000 222.809921,500.668854 
	C222.010803,499.908997 221.381790,499.206482 220.660751,499.094086 
	C213.729980,498.013336 206.715256,497.365753 199.854843,495.958923 
	C180.278549,491.944427 161.171494,486.211945 143.433838,476.928070 
	C130.573883,470.197205 118.040520,462.744232 105.849495,454.858826 
	C91.249847,445.415497 78.818474,433.286102 66.937485,420.658203 
	C54.031578,406.940887 42.766460,391.926422 33.891975,375.326843 
	C27.588432,363.536163 21.560450,351.487122 16.749598,339.035645 
	C9.653895,320.670471 4.379683,301.697998 2.890839,281.882690 
	C2.840411,281.211578 1.655898,280.625641 1.000001,280.000000 
	C1.000000,260.979095 1.000000,241.958206 1.335820,222.810303 
	C2.103964,221.843216 2.759821,221.047150 2.935045,220.156509 
	C5.505535,207.091049 7.216514,193.796738 10.700431,180.983307 
	C17.796961,154.883133 29.718067,130.868500 45.076740,108.624413 
	C55.998714,92.806023 68.336075,78.089561 83.032707,65.673546 
	C93.333473,56.971245 104.234642,48.898182 115.394180,41.319363 
	C124.475800,35.151737 133.990326,29.378847 143.940018,24.791002 
	C157.672989,18.458672 171.690781,12.506610 186.719666,9.687935 
	C198.991089,7.386423 211.295059,5.258150 223.562912,2.938390 
	C224.465195,2.767776 225.191742,1.667875 226.000000,1.000001 
	C242.020889,1.000000 258.041779,1.000000 274.242065,1.367486 
	C277.088715,2.215617 279.768829,2.634713 282.420990,3.187698 
	C293.202271,5.435616 303.969971,7.748609 314.751953,9.993198 
	C334.336365,14.070287 352.480957,21.968634 369.861481,31.537052 
	C380.221527,37.240540 390.261322,43.655952 399.873688,50.548275 
	C408.344238,56.621906 416.403656,63.402222 423.940430,70.607109 
	C431.371490,77.710922 438.153534,85.541893 444.779297,93.424561 
	C450.093079,99.746407 455.188263,106.345192 459.581207,113.324165 
	C465.048950,122.010651 470.256012,130.954971 474.557373,140.258728 
	C480.231781,152.532410 485.513367,165.060410 489.867920,177.852142 
	C494.680237,191.988602 498.512909,206.490479 499.119415,221.602600 
	C499.139099,222.092773 500.346344,222.535278 501.000000,223.000000 
M285.691681,253.149567 
	C287.654236,268.790100 282.694275,281.855804 271.478119,292.878632 
	C257.108215,307.000824 242.989944,321.378998 228.755798,335.639404 
	C219.795578,344.616150 210.918610,353.283661 197.461517,355.763855 
	C174.981277,359.906982 151.526505,344.814301 146.967422,322.484161 
	C143.684830,306.406128 147.698044,292.528687 159.309677,280.885986 
	C165.772385,274.406006 172.306473,267.994751 178.661591,261.410797 
	C182.841751,257.080109 182.905609,251.624313 179.142853,248.045197 
	C175.620193,244.694458 169.826202,245.380356 165.810211,249.468872 
	C160.441406,254.934647 154.819855,260.159882 149.598129,265.760040 
	C144.968307,270.725342 139.892090,275.559906 136.470123,281.318176 
	C118.296257,311.900116 129.086411,352.192352 162.221008,368.416107 
	C184.352570,379.252411 213.757767,374.967407 231.270050,357.637421 
	C248.668457,340.420105 265.726227,322.852844 283.336304,305.856567 
	C306.969849,283.046814 310.606781,250.967422 292.098297,223.865814 
	C286.620422,215.844727 279.267670,209.883026 270.853882,205.304214 
	C264.448700,201.818497 257.885315,204.445480 256.389404,210.585938 
	C255.379761,214.730286 257.773285,218.420547 263.310944,221.450882 
	C275.619415,228.186417 282.892120,238.570694 285.691681,253.149567 
M314.370728,145.845367 
	C327.724884,146.163086 338.728912,151.877884 346.737213,162.111221 
	C361.214752,180.611282 359.296997,204.743240 342.785645,221.512497 
	C336.477051,227.919601 330.025085,234.185532 323.720398,240.596390 
	C319.411987,244.977325 319.125824,250.254227 322.809143,253.951324 
	C326.230774,257.385742 332.200043,256.947327 336.220856,252.927887 
	C339.755432,249.394516 343.225586,245.796463 346.774200,242.277420 
	C354.912292,234.207108 363.548523,226.567123 368.370911,215.776260 
	C377.698944,194.903137 376.656036,174.455002 364.412811,155.296494 
	C354.655609,140.028275 340.258759,130.823868 322.031525,128.462524 
	C302.842651,125.976593 285.558258,130.555679 271.439941,144.105606 
	C255.109222,159.778870 239.026291,175.724655 223.253159,191.957703 
	C216.698380,198.703613 209.861313,205.776459 205.521912,213.957367 
	C194.012924,235.654861 195.999664,257.201660 209.589615,277.669403 
	C214.966827,285.768005 222.322815,291.690674 230.575775,296.526489 
	C236.010559,299.710999 242.141113,298.331207 244.593887,293.802856 
	C247.270142,288.861908 245.270798,284.258820 239.049072,280.872955 
	C237.302155,279.922272 235.561691,278.920715 233.958984,277.749939 
	C212.331802,261.951263 209.323318,229.981735 229.889587,210.145355 
	C246.902191,193.736481 263.451721,176.842941 280.037750,159.998062 
	C289.285614,150.605865 300.171936,145.534271 314.370728,145.845367 
z"/>
<path fill="#190804" opacity="1.000000" stroke="none" 
	d="
M285.608215,252.718338 
	C282.892120,238.570694 275.619415,228.186417 263.310944,221.450882 
	C257.773285,218.420547 255.379761,214.730286 256.389404,210.585938 
	C257.885315,204.445480 264.448700,201.818497 270.853882,205.304214 
	C279.267670,209.883026 286.620422,215.844727 292.098297,223.865814 
	C310.606781,250.967422 306.969849,283.046814 283.336304,305.856567 
	C265.726227,322.852844 248.668457,340.420105 231.270050,357.637421 
	C213.757767,374.967407 184.352570,379.252411 162.221008,368.416107 
	C129.086411,352.192352 118.296257,311.900116 136.470123,281.318176 
	C139.892090,275.559906 144.968307,270.725342 149.598129,265.760040 
	C154.819855,260.159882 160.441406,254.934647 165.810211,249.468872 
	C169.826202,245.380356 175.620193,244.694458 179.142853,248.045197 
	C182.905609,251.624313 182.841751,257.080109 178.661591,261.410797 
	C172.306473,267.994751 165.772385,274.406006 159.309677,280.885986 
	C147.698044,292.528687 143.684830,306.406128 146.967422,322.484161 
	C151.526505,344.814301 174.981277,359.906982 197.461517,355.763855 
	C210.918610,353.283661 219.795578,344.616150 228.755798,335.639404 
	C242.989944,321.378998 257.108215,307.000824 271.478119,292.878632 
	C282.694275,281.855804 287.654236,268.790100 285.608215,252.718338 
z"/>
<path fill="#190804" opacity="1.000000" stroke="none" 
	d="
M313.902588,145.840210 
	C300.171936,145.534271 289.285614,150.605865 280.037750,159.998062 
	C263.451721,176.842941 246.902191,193.736481 229.889587,210.145355 
	C209.323318,229.981735 212.331802,261.951263 233.958984,277.749939 
	C235.561691,278.920715 237.302155,279.922272 239.049072,280.872955 
	C245.270798,284.258820 247.270142,288.861908 244.593887,293.802856 
	C242.141113,298.331207 236.010559,299.710999 230.575775,296.526489 
	C222.322815,291.690674 214.966827,285.768005 209.589615,277.669403 
	C195.999664,257.201660 194.012924,235.654861 205.521912,213.957367 
	C209.861313,205.776459 216.698380,198.703613 223.253159,191.957703 
	C239.026291,175.724655 255.109222,159.778870 271.439941,144.105606 
	C285.558258,130.555679 302.842651,125.976593 322.031525,128.462524 
	C340.258759,130.823868 354.655609,140.028275 364.412811,155.296494 
	C376.656036,174.455002 377.698944,194.903137 368.370911,215.776260 
	C363.548523,226.567123 354.912292,234.207108 346.774200,242.277420 
	C343.225586,245.796463 339.755432,249.394516 336.220856,252.927887 
	C332.200043,256.947327 326.230774,257.385742 322.809143,253.951324 
	C319.125824,250.254227 319.411987,244.977325 323.720398,240.596390 
	C330.025085,234.185532 336.477051,227.919601 342.785645,221.512497 
	C359.296997,204.743240 361.214752,180.611282 346.737213,162.111221 
	C338.728912,151.877884 327.724884,146.163086 313.902588,145.840210 
z"/>
</svg>