<svg width="600" height="600" xmlns="http://www.w3.org/2000/svg">
 <g id="Layer_1">
  <title>Layer 1</title>
  <ellipse fill="#ef8c65" stroke="#000" cx="300" cy="300" id="svg_2" rx="300" ry="300" stroke-width="0"/>
  <g stroke="null" id="svg_1" stroke-width="0">
   <path stroke="null" id="svg_3" fill-rule="evenodd" d="m325.54819,259.25917a18.50227,18.50227 0 0 1 26.14988,0a86.34396,86.34396 0 0 1 0,122.11502l-49.33941,49.33941a86.34396,86.34396 0 0 1 -133.11771,-108.59603a18.50227,18.50227 0 0 1 30.8618,20.40184a49.33941,49.33941 0 0 0 76.10603,62.01963l49.33941,-49.33941a49.33941,49.33941 0 0 0 0,-69.76591a18.50227,18.50227 0 0 1 0,-26.14988l0,-0.02467l0,-0.00001z" clip-rule="evenodd" fill="#140703"/>
   <path stroke="null" id="svg_4" fill-rule="evenodd" d="m280.45197,356.70449a18.50227,18.50227 0 0 1 -26.14988,0a86.34396,86.34396 0 0 1 0,-122.11502l49.33941,-49.33941a86.34396,86.34396 0 0 1 133.11771,108.59603a18.50227,18.50227 0 0 1 -30.8618,-20.40184a49.33941,49.33941 0 0 0 -76.10603,-62.01963l-49.33941,49.33941a49.33941,49.33941 0 0 0 0,69.76591a18.50227,18.50227 0 0 1 0,26.14988l0,0.02467l0,0.00001z" clip-rule="evenodd" fill="#140703"/>
  </g>
 </g>
</svg>